<svg xmlns="http://www.w3.org/2000/svg" width="200" height="200" class="icon" version="1.1" viewBox="0 0 1024 1024"><path d="M106.88 317.76l400 184a41.6 41.6 0 0 0 17.6 3.84 39.68 39.68 0 0 0 16-3.2l375.36-160a40.96 40.96 0 0 0 25.28-36.8 41.6 41.6 0 0 0-22.72-38.72l-384-192a42.88 42.88 0 0 0-34.88 0L107.84 241.92a41.6 41.6 0 0 0 0 75.84z m408-160L800 301.44l-275.52 117.12-297.6-137.28z"/><path d="M883.52 490.56l-358.4 152-384-176.32a41.6 41.6 0 0 0-34.88 75.52l400 184a41.6 41.6 0 0 0 17.6 3.84 39.68 39.68 0 0 0 16-3.2l375.36-160a41.6 41.6 0 0 0-32-76.48z"/><path d="M883.52 714.56l-358.4 152-384-176.32a41.6 41.6 0 0 0-34.88 75.52l400 184a41.6 41.6 0 0 0 17.6 3.84 39.68 39.68 0 0 0 16-3.2l375.36-160a41.6 41.6 0 1 0-32-76.48z"/></svg>